{
  "accessors": [
    {
      "bufferView": 2,
      "componentType": 5126,
      "count": 65532,
      "max": [
        0.11115194857120514,
        0.11115199327468872,
        0.11115191131830215
      ],
      "min": [
        -0.11115194857120514,
        -0.11115199327468872,
        -0.11115184426307678
      ],
      "type": "VEC3"
    },
    {
      "bufferView": 2,
      "byteOffset": 786384,
      "componentType": 5126,
      "count": 65532,
      "max": [
        1,
        1,
        1
      ],
      "min": [
        -1,
        -1,
        -1
      ],
      "type": "VEC3"
    },
    {
      "bufferView": 3,
      "componentType": 5126,
      "count": 65532,
      "max": [
        0.99999922513961792,
        0.99999368190765381,
        0.99999982118606567,
        1
      ],
      "min": [
        -0.99999994039535522,
        -0.99999916553497314,
        -0.99998807907104492,
        1
      ],
      "type": "VEC4"
    },
    {
      "bufferView": 1,
      "componentType": 5126,
      "count": 65532,
      "max": [
        0.96710914373397827,
        0.99805247783660889
      ],
      "min": [
        0.0010396377183496952,
        0.0049059279263019562
      ],
      "type": "VEC2"
    },
    {
      "bufferView": 0,
      "componentType": 5125,
      "count": 374565,
      "max": [
        65531
      ],
      "min": [
        0
      ],
      "type": "SCALAR"
    },
    {
      "bufferView": 2,
      "byteOffset": 1572768,
      "componentType": 5126,
      "count": 10258,
      "max": [
        0.11115194857120514,
        0.11115190386772156,
        0.11115191131830215
      ],
      "min": [
        -0.11082521080970764,
        -0.11115190386772156,
        -0.11115184426307678
      ],
      "type": "VEC3"
    },
    {
      "bufferView": 2,
      "byteOffset": 1695864,
      "componentType": 5126,
      "count": 10258,
      "max": [
        1,
        0.99998044967651367,
        0.99998068809509277
      ],
      "min": [
        -1,
        -1,
        -1
      ],
      "type": "VEC3"
    },
    {
      "bufferView": 3,
      "byteOffset": 1048512,
      "componentType": 5126,
      "count": 10258,
      "max": [
        0.9999200701713562,
        0.99993985891342163,
        0.999977707862854,
        1
      ],
      "min": [
        -0.99999994039535522,
        -0.99999815225601196,
        -0.99977302551269531,
        1
      ],
      "type": "VEC4"
    },
    {
      "bufferView": 1,
      "byteOffset": 524256,
      "componentType": 5126,
      "count": 10258,
      "max": [
        0.96429240703582764,
        0.99451053142547607
      ],
      "min": [
        0.0068059959448873997,
        0.0048952214419841766
      ],
      "type": "VEC2"
    },
    {
      "bufferView": 0,
      "byteOffset": 1498260,
      "componentType": 5125,
      "count": 39579,
      "max": [
        10257
      ],
      "min": [
        0
      ],
      "type": "SCALAR"
    }
  ],
  "asset": {
    "extras": {
      "author": "attix84work (https://sketchfab.com/attix84work)",
      "license": "CC-BY-4.0 (http://creativecommons.org/licenses/by/4.0/)",
      "source": "https://sketchfab.com/models/ccf39fbad54a4c1694582f7bcfc7cf27",
      "title": "Cafusa Adidas 2013 Confederations Cup Ball"
    },
    "generator": "Sketchfab-3.20.7",
    "version": "2.0"
  },
  "bufferViews": [
    {
      "buffer": 0,
      "byteLength": 1656576,
      "byteOffset": 0,
      "name": "floatBufferViews",
      "target": 34963
    },
    {
      "buffer": 0,
      "byteLength": 606320,
      "byteOffset": 1656576,
      "byteStride": 8,
      "name": "floatBufferViews",
      "target": 34962
    },
    {
      "buffer": 0,
      "byteLength": 1818960,
      "byteOffset": 2262896,
      "byteStride": 12,
      "name": "floatBufferViews",
      "target": 34962
    },
    {
      "buffer": 0,
      "byteLength": 1212640,
      "byteOffset": 4081856,
      "byteStride": 16,
      "name": "floatBufferViews",
      "target": 34962
    }
  ],
  "buffers": [
    {
      "byteLength": 5294496,
      "uri": "scene.bin"
    }
  ],
  "images": [
    {
      "uri": "textures/Ball_baseColor.png"
    },
    {
      "uri": "textures/Ball_metallicRoughness.png"
    }
  ],
  "materials": [
    {
      "doubleSided": true,
      "emissiveFactor": [
        0,
        0,
        0
      ],
      "name": "Ball",
      "pbrMetallicRoughness": {
        "baseColorFactor": [
          1,
          1,
          1,
          1
        ],
        "baseColorTexture": {
          "index": 0,
          "texCoord": 0
        },
        "metallicFactor": 0.087080792700000006,
        "metallicRoughnessTexture": {
          "index": 1,
          "texCoord": 0
        },
        "roughnessFactor": 0.33708079270000002
      }
    }
  ],
  "meshes": [
    {
      "name": "Cafusa_Ball_0",
      "primitives": [
        {
          "attributes": {
            "NORMAL": 1,
            "POSITION": 0,
            "TANGENT": 2,
            "TEXCOORD_0": 3
          },
          "indices": 4,
          "material": 0,
          "mode": 4
        }
      ]
    },
    {
      "name": "Cafusa_Ball_0",
      "primitives": [
        {
          "attributes": {
            "NORMAL": 6,
            "POSITION": 5,
            "TANGENT": 7,
            "TEXCOORD_0": 8
          },
          "indices": 9,
          "material": 0,
          "mode": 4
        }
      ]
    }
  ],
  "nodes": [
    {
      "children": [
        1
      ],
      "name": "RootNode (gltf orientation matrix)",
      "rotation": [
        -0.70710678118654746,
        -0,
        -0,
        0.70710678118654757
      ]
    },
    {
      "children": [
        2
      ],
      "name": "RootNode (model correction matrix)"
    },
    {
      "children": [
        3
      ],
      "matrix": [
        1,
        0,
        0,
        0,
        0,
        0,
        1,
        0,
        0,
        -1,
        0,
        0,
        0,
        0,
        0,
        1
      ],
      "name": "b4a040b770ba4a549955fe7ba3f54e5d.fbx"
    },
    {
      "children": [
        4
      ],
      "name": "RootNode"
    },
    {
      "children": [
        5,
        6
      ],
      "matrix": [
        57.885130169692978,
        -78.162550933658821,
        -23.236369394977618,
        0,
        -59.68521480165932,
        -60.028106696786331,
        53.238244671988895,
        0,
        -55.560710003970442,
        -16.948346363772949,
        -81.398815488340119,
        0,
        0,
        0,
        0,
        1
      ],
      "name": "Cafusa"
    },
    {
      "mesh": 0,
      "name": "Cafusa_Ball_0"
    },
    {
      "mesh": 1,
      "name": "Cafusa_Ball_0"
    }
  ],
  "samplers": [
    {
      "magFilter": 9729,
      "minFilter": 9987,
      "wrapS": 10497,
      "wrapT": 10497
    }
  ],
  "scene": 0,
  "scenes": [
    {
      "name": "OSG_Scene",
      "nodes": [
        0
      ]
    }
  ],
  "textures": [
    {
      "sampler": 0,
      "source": 0
    },
    {
      "sampler": 0,
      "source": 1
    }
  ]
}

